<?xml version="1.0" standalone="no"?>
<!DOCTYPE svg PUBLIC "-//W3C//DTD SVG 20010904//EN"
 "http://www.w3.org/TR/2001/REC-SVG-20010904/DTD/svg10.dtd">
<svg version="1.0" xmlns="http://www.w3.org/2000/svg"
 width="1024.000000pt" height="1024.000000pt" viewBox="0 0 1024.000000 1024.000000"
 preserveAspectRatio="xMidYMid meet">

<g transform="translate(0.000000,1024.000000) scale(0.100000,-0.100000)"
fill="#FFFFFF" stroke="none">
<path d="M4470 8384 c-441 -41 -865 -187 -1206 -415 -236 -158 -527 -446 -711
-704 -185 -260 -324 -531 -407 -795 -24 -76 -66 -240 -66 -258 0 -4 22 38 49
93 97 198 270 434 449 612 310 308 771 568 1192 674 238 59 353 73 615 74 267
0 358 -11 590 -70 181 -46 305 -93 480 -179 251 -125 411 -242 613 -450 324
-334 572 -760 670 -1151 47 -188 55 -275 49 -526 -7 -319 -34 -455 -144 -713
-69 -163 -93 -211 -132 -260 -62 -78 -27 -48 127 109 176 180 236 259 346 456
149 268 227 541 241 849 22 460 -109 957 -363 1388 -151 254 -405 555 -601
711 -332 265 -802 465 -1256 536 -97 15 -444 27 -535 19z"/>
<path d="M4145 7223 c-471 -56 -790 -189 -1130 -468 -424 -348 -746 -900 -872
-1492 -26 -122 -27 -142 -28 -413 0 -343 16 -472 91 -731 153 -530 507 -1000
999 -1326 191 -126 481 -274 660 -336 116 -40 340 -98 470 -122 112 -21 265
-45 285 -44 8 0 -39 22 -105 50 -515 215 -829 447 -1155 852 -243 303 -414
695 -477 1092 -27 168 -24 545 5 722 69 423 231 811 478 1143 92 124 295 331
412 419 382 289 819 426 1246 392 154 -12 320 -38 349 -53 36 -19 26 -1 -16
29 -168 118 -459 227 -730 273 -90 15 -159 20 -285 19 -92 -1 -180 -4 -197 -6z"/>
<path d="M7586 6783 c59 -137 141 -438 170 -633 25 -160 25 -491 1 -655 -116
-778 -625 -1466 -1352 -1828 -168 -84 -373 -156 -545 -192 -223 -47 -538 -67
-735 -46 -424 46 -816 200 -1107 438 -322 263 -542 656 -588 1054 -8 65 -11
177 -8 295 5 169 8 197 31 269 14 43 25 81 23 82 -8 8 -117 -229 -139 -302
-149 -481 -115 -995 97 -1440 221 -464 578 -819 1061 -1056 242 -118 450 -184
733 -233 145 -25 182 -38 219 -78 63 -68 70 -167 18 -289 -54 -128 -272 -512
-355 -623 -22 -31 -38 -56 -36 -56 15 0 472 299 686 449 837 585 1607 1282
1967 1782 231 321 374 669 429 1044 21 146 24 482 5 630 -58 463 -222 887
-504 1303 -65 96 -89 125 -71 85z"/>
<path d="M4975 6499 c-500 -53 -921 -408 -1049 -888 -83 -309 -50 -655 86
-911 169 -319 486 -561 852 -651 118 -29 325 -36 446 -15 393 69 748 325 919
664 44 87 87 221 106 326 19 112 19 323 0 443 -63 391 -303 723 -651 900 -151
77 -282 115 -454 133 -108 11 -142 11 -255 -1z"/>
</g>
</svg>
